<?xml version="1.0" standalone="no"?>
<!DOCTYPE svg PUBLIC "-//W3C//DTD SVG 20010904//EN"
 "http://www.w3.org/TR/2001/REC-SVG-20010904/DTD/svg10.dtd">
<svg version="1.0" xmlns="http://www.w3.org/2000/svg"
 width="512.000000pt" height="512.000000pt" viewBox="0 0 512.000000 512.000000"
 preserveAspectRatio="xMidYMid meet">
<metadata>
Created by potrace 1.11, written by Peter Selinger 2001-2013
</metadata>
<g transform="translate(0.000000,512.000000) scale(0.100000,-0.100000)"
fill="#000000" stroke="none">
<path d="M2280 4814 c-111 -15 -288 -50 -330 -66 -14 -6 -36 -12 -49 -14 -50
-10 -271 -100 -371 -152 -239 -124 -437 -274 -631 -478 -108 -115 -201 -241
-316 -429 -27 -43 -117 -233 -140 -295 -58 -154 -107 -326 -118 -416 -3 -25
-7 -49 -9 -53 -20 -32 -29 -478 -13 -616 39 -336 173 -701 360 -980 118 -176
326 -404 482 -529 173 -139 421 -278 630 -355 112 -41 271 -87 335 -97 19 -3
46 -8 60 -10 117 -24 281 -35 450 -31 102 3 194 8 206 10 12 3 45 8 75 12 127
15 393 90 534 150 50 21 217 105 270 135 38 21 185 119 195 130 3 3 23 18 45
34 167 123 376 348 509 550 251 380 376 797 374 1252 -1 175 -6 242 -29 369
-6 33 -13 71 -15 85 -7 41 -42 171 -62 235 -85 260 -240 542 -416 754 -96 115
-131 144 -157 131 -30 -16 -23 -51 19 -95 216 -226 425 -596 498 -880 1 -5 11
-44 22 -86 25 -92 28 -111 51 -279 16 -113 11 -405 -10 -544 -52 -360 -174
-669 -377 -961 -31 -44 -58 -82 -62 -85 -3 -3 -23 -27 -45 -55 -116 -146 -340
-341 -518 -452 -257 -159 -480 -243 -817 -308 -136 -26 -613 -27 -692 -1 -7 3
-31 7 -53 10 -71 10 -271 64 -372 102 -98 36 -246 106 -339 159 -498 287 -887
805 -1019 1355 -29 122 -34 146 -41 200 -3 25 -9 72 -14 105 -9 66 -6 465 4
505 3 14 9 48 12 75 8 67 47 231 79 335 183 585 643 1088 1220 1335 141 60
339 120 464 140 19 3 37 7 40 9 32 19 501 29 631 13 131 -15 305 -55 441 -101
70 -23 71 -24 90 -5 10 10 19 23 19 28 0 9 -49 49 -60 49 -3 0 -37 9 -76 21
-242 72 -424 98 -684 98 -96 1 -222 -6 -280 -13z"/>
<path d="M2322 4634 c-56 -7 -126 -18 -155 -23 -28 -6 -62 -13 -74 -15 -63
-12 -246 -69 -308 -96 -286 -123 -497 -263 -695 -459 -148 -147 -317 -375
-377 -506 -7 -16 -17 -37 -23 -45 -73 -119 -175 -449 -196 -635 -3 -27 -9 -77
-14 -110 -17 -132 -2 -420 30 -580 6 -27 12 -60 14 -72 31 -160 134 -416 240
-596 104 -176 283 -391 436 -522 248 -214 593 -386 910 -454 171 -36 256 -45
445 -45 189 0 263 7 470 48 215 42 538 186 730 325 144 104 178 133 302 259
319 324 533 779 580 1232 16 158 8 431 -17 562 -6 29 -13 65 -15 79 -15 84
-73 280 -105 354 -182 423 -439 736 -799 973 -260 171 -574 285 -906 328 -91
12 -368 10 -473 -2z"/>
<path d="M3610 4535 c-22 -26 -6 -49 63 -87 37 -22 104 -66 148 -98 67 -50 84
-58 100 -50 11 6 19 21 19 35 0 20 -19 39 -87 90 -92 68 -191 125 -216 125 -8
0 -20 -7 -27 -15z"/>
</g>
</svg>
